<svg width="166" height="42" viewBox="0 0 166 42" fill="none" xmlns="http://www.w3.org/2000/svg">
<g clip-path="url(#clip0_2_221)">
<path d="M46.9062 36.6992C47.2188 36.6992 47.5273 36.6406 47.832 36.5234C48.1367 36.4141 48.4062 36.2266 48.6406 35.9609C48.8828 35.7031 49.0781 35.3633 49.2266 34.9414C49.375 34.5195 49.4492 34.0039 49.4492 33.3945C49.4492 32.7383 49.2852 32.1016 48.957 31.4844C48.6367 30.8672 48.2305 30.2617 47.7383 29.668C47.2539 29.0664 46.7266 28.4727 46.1562 27.8867C45.5938 27.293 45.0664 26.6914 44.5742 26.082C44.0898 25.4648 43.6836 24.832 43.3555 24.1836C43.0352 23.5273 42.875 22.8438 42.875 22.1328C42.875 21.4219 43.0039 20.7812 43.2617 20.2109C43.5273 19.6328 43.8828 19.1445 44.3281 18.7461C44.7812 18.3398 45.3047 18.0273 45.8984 17.8086C46.5 17.5898 47.1406 17.4805 47.8203 17.4805C48.5469 17.4805 49.1914 17.5586 49.7539 17.7148C50.3242 17.8633 50.8047 18.0703 51.1953 18.3359C51.5938 18.5938 51.8945 18.9023 52.0977 19.2617C52.3008 19.6133 52.4023 19.9883 52.4023 20.3867C52.4023 20.5742 52.375 20.7695 52.3203 20.9727C52.2656 21.168 52.1797 21.3477 52.0625 21.5117C51.9453 21.6758 51.7969 21.8125 51.6172 21.9219C51.4375 22.0312 51.2266 22.0859 50.9844 22.0859C50.6953 22.0859 50.4805 22 50.3398 21.8281C50.207 21.6484 50.1055 21.4297 50.0352 21.1719C49.9727 20.9141 49.918 20.6328 49.8711 20.3281C49.8242 20.0156 49.75 19.7305 49.6484 19.4727C49.5469 19.2148 49.3945 19 49.1914 18.8281C48.9883 18.6484 48.6914 18.5586 48.3008 18.5586C48.0898 18.5586 47.8789 18.6055 47.668 18.6992C47.4648 18.793 47.2773 18.9375 47.1055 19.1328C46.9414 19.3203 46.8086 19.5625 46.707 19.8594C46.6055 20.1562 46.5547 20.5078 46.5547 20.9141C46.5547 21.3828 46.6523 21.8398 46.8477 22.2852C47.043 22.7305 47.3008 23.1719 47.6211 23.6094C47.9414 24.0391 48.3047 24.4727 48.7109 24.9102C49.125 25.3398 49.543 25.7773 49.9648 26.2227C50.3945 26.6602 50.8125 27.1133 51.2188 27.582C51.6328 28.043 52 28.5234 52.3203 29.0234C52.6406 29.5234 52.8984 30.0469 53.0938 30.5938C53.2891 31.1406 53.3867 31.7148 53.3867 32.3164C53.3867 33.1992 53.2148 33.9883 52.8711 34.6836C52.5352 35.3711 52.0742 35.9492 51.4883 36.418C50.9102 36.8945 50.2305 37.2578 49.4492 37.5078C48.668 37.7578 47.8359 37.8828 46.9531 37.8828C46.1562 37.8828 45.4492 37.7812 44.832 37.5781C44.2227 37.3828 43.707 37.1211 43.2852 36.793C42.8633 36.4648 42.543 36.0898 42.3242 35.668C42.1133 35.2539 42.0078 34.8242 42.0078 34.3789C42.0078 34.1914 42.0352 33.9922 42.0898 33.7812C42.1523 33.5625 42.2383 33.3633 42.3477 33.1836C42.4648 33.0039 42.6094 32.8555 42.7812 32.7383C42.9531 32.6133 43.1523 32.5508 43.3789 32.5508C43.6133 32.5508 43.8008 32.6094 43.9414 32.7266C44.0898 32.8438 44.207 33 44.293 33.1953C44.3789 33.3906 44.4492 33.6133 44.5039 33.8633C44.5586 34.1133 44.6172 34.3672 44.6797 34.625C44.7422 34.8828 44.8203 35.1367 44.9141 35.3867C45.0078 35.6367 45.1367 35.8594 45.3008 36.0547C45.4648 36.25 45.6758 36.4062 45.9336 36.5234C46.1914 36.6406 46.5156 36.6992 46.9062 36.6992ZM59.2344 25.0625C59.5234 24.6484 59.8516 24.2773 60.2188 23.9492C60.3672 23.8086 60.5312 23.6719 60.7109 23.5391C60.8984 23.4062 61.0938 23.2891 61.2969 23.1875C61.5078 23.0781 61.7266 22.9922 61.9531 22.9297C62.1875 22.8672 62.4258 22.8359 62.668 22.8359C63.1914 22.8359 63.6602 22.9375 64.0742 23.1406C64.4883 23.3438 64.8359 23.6836 65.1172 24.1602C65.3984 24.6367 65.6133 25.2695 65.7617 26.0586C65.9102 26.8398 65.9844 27.8125 65.9844 28.9766C65.9844 30.1094 65.8828 31.0938 65.6797 31.9297C65.4766 32.7656 65.2109 33.4766 64.8828 34.0625C64.5547 34.6484 64.1836 35.125 63.7695 35.4922C63.3555 35.8672 62.9375 36.1602 62.5156 36.3711C62.0938 36.582 61.6875 36.7266 61.2969 36.8047C60.9062 36.8906 60.5703 36.9375 60.2891 36.9453L60.1719 36.4648C60.5234 36.3789 60.8359 36.2188 61.1094 35.9844C61.3828 35.75 61.6133 35.3672 61.8008 34.8359C61.9883 34.2969 62.1289 33.5742 62.2227 32.668C62.3242 31.7617 62.375 30.5938 62.375 29.1641C62.375 28.1797 62.3281 27.3945 62.2344 26.8086C62.1484 26.2148 62.0312 25.7656 61.8828 25.4609C61.7422 25.1484 61.5781 24.9453 61.3906 24.8516C61.2109 24.75 61.0273 24.6992 60.8398 24.6992C60.6133 24.6992 60.4141 24.7617 60.2422 24.8867C60.0703 25.0039 59.918 25.1406 59.7852 25.2969C59.6602 25.4531 59.5508 25.6094 59.457 25.7656C59.3711 25.9219 59.2969 26.0391 59.2344 26.1172V33.9453C59.2344 34.0469 59.2188 34.1719 59.1875 34.3203C59.1562 34.4609 59.0781 34.5977 58.9531 34.7305C58.8359 34.8555 58.6562 34.9609 58.4141 35.0469C58.1797 35.1406 57.8555 35.1875 57.4414 35.1875C57.0273 35.1875 56.6992 35.1367 56.457 35.0352C56.2148 34.9414 56.0312 34.8281 55.9062 34.6953C55.7891 34.5625 55.7148 34.4258 55.6836 34.2852C55.6523 34.1445 55.6367 34.0312 55.6367 33.9453V18.8281C55.6367 18.6016 55.582 18.4062 55.4727 18.2422C55.3711 18.0703 55.1953 17.9844 54.9453 17.9844C54.8125 17.9844 54.6953 18.0078 54.5938 18.0547C54.5 18.0938 54.3984 18.1562 54.2891 18.2422L54.0547 17.9609C54.2344 17.8125 54.4336 17.668 54.6523 17.5273C54.8711 17.3789 55.1094 17.25 55.3672 17.1406C55.6328 17.0312 55.9141 16.9414 56.2109 16.8711C56.5078 16.8008 56.8203 16.7656 57.1484 16.7656C57.6562 16.7656 58.0508 16.8359 58.332 16.9766C58.6133 17.1094 58.8203 17.2773 58.9531 17.4805C59.0859 17.6758 59.1641 17.8867 59.1875 18.1133C59.2188 18.332 59.2344 18.5273 59.2344 18.6992V25.0625ZM67.6602 29C67.6602 27.9766 67.8086 27.082 68.1055 26.3164C68.4023 25.543 68.7969 24.8984 69.2891 24.3828C69.7891 23.8672 70.3672 23.4805 71.0234 23.2227C71.6797 22.9648 72.3672 22.8359 73.0859 22.8359C73.8047 22.8359 74.4922 22.957 75.1484 23.1992C75.8047 23.4336 76.3789 23.7969 76.8711 24.2891C77.3711 24.7812 77.7695 25.4062 78.0664 26.1641C78.3633 26.9141 78.5117 27.8047 78.5117 28.8359C78.5117 29.8594 78.3633 30.7656 78.0664 31.5547C77.7695 32.3438 77.3711 33.0078 76.8711 33.5469C76.3789 34.0859 75.8047 34.4961 75.1484 34.7773C74.4922 35.0508 73.8047 35.1875 73.0859 35.1875C72.3672 35.1875 71.6797 35.0586 71.0234 34.8008C70.3672 34.5352 69.7891 34.1445 69.2891 33.6289C68.7969 33.1133 68.4023 32.4688 68.1055 31.6953C67.8086 30.9219 67.6602 30.0234 67.6602 29ZM74.8672 28.8828C74.8672 28.2578 74.8438 27.6562 74.7969 27.0781C74.7578 26.4922 74.6758 25.9727 74.5508 25.5195C74.4258 25.0664 74.2461 24.707 74.0117 24.4414C73.7773 24.168 73.4688 24.0312 73.0859 24.0312C72.7031 24.0312 72.3945 24.1758 72.1602 24.4648C71.9258 24.7461 71.7461 25.1211 71.6211 25.5898C71.4961 26.0508 71.4141 26.5781 71.375 27.1719C71.3359 27.7656 71.3164 28.375 71.3164 29C71.3164 29.625 71.3359 30.2383 71.375 30.8398C71.4141 31.4336 71.4961 31.9648 71.6211 32.4336C71.7461 32.9023 71.9258 33.2812 72.1602 33.5703C72.3945 33.8516 72.7031 33.9922 73.0859 33.9922C73.4688 33.9922 73.7773 33.8438 74.0117 33.5469C74.2461 33.25 74.4258 32.8594 74.5508 32.375C74.6758 31.8906 74.7578 31.3438 74.7969 30.7344C74.8438 30.125 74.8672 29.5078 74.8672 28.8828ZM80.8555 24.8984C80.8555 24.6719 80.8008 24.4766 80.6914 24.3125C80.5898 24.1406 80.4141 24.0547 80.1641 24.0547C80.0312 24.0547 79.918 24.0781 79.8242 24.125C79.7305 24.1719 79.6289 24.2383 79.5195 24.3242L79.2734 24.0312C79.4531 23.8828 79.6523 23.7383 79.8711 23.5977C80.0977 23.4492 80.3398 23.3203 80.5977 23.2109C80.8555 23.1016 81.1328 23.0117 81.4297 22.9414C81.7266 22.8711 82.0391 22.8359 82.3672 22.8359C82.7188 22.8359 83.0195 22.8906 83.2695 23C83.5195 23.1094 83.7266 23.2422 83.8906 23.3984C84.0625 23.5469 84.1914 23.707 84.2773 23.8789C84.3633 24.043 84.4141 24.1836 84.4297 24.3008C84.5859 24.082 84.7695 23.8828 84.9805 23.7031C85.1992 23.5234 85.4336 23.3711 85.6836 23.2461C85.9414 23.1133 86.2109 23.0117 86.4922 22.9414C86.7812 22.8711 87.0781 22.8359 87.3828 22.8359C88.0078 22.8359 88.5742 22.9648 89.082 23.2227C89.5898 23.4805 90.0234 23.8633 90.3828 24.3711C90.75 24.8789 91.0312 25.5078 91.2266 26.2578C91.4219 27.0078 91.5195 27.875 91.5195 28.8594C91.5195 30 91.3984 30.9727 91.1562 31.7773C90.9219 32.5742 90.6094 33.2266 90.2188 33.7344C89.8359 34.2422 89.3945 34.6133 88.8945 34.8477C88.4023 35.0742 87.8984 35.1875 87.3828 35.1875C86.9531 35.1875 86.5742 35.1445 86.2461 35.0586C85.9258 34.9727 85.6484 34.8672 85.4141 34.7422C85.1797 34.6172 84.9844 34.4922 84.8281 34.3672C84.6719 34.2344 84.5469 34.125 84.4531 34.0391V39.7578C84.4531 39.8594 84.4375 39.9805 84.4062 40.1211C84.375 40.2617 84.2969 40.3945 84.1719 40.5195C84.0547 40.6523 83.875 40.7656 83.6328 40.8594C83.3984 40.9531 83.0742 41 82.6602 41C82.2461 41 81.918 40.9492 81.6758 40.8477C81.4414 40.7539 81.2617 40.6367 81.1367 40.4961C81.0117 40.3633 80.9336 40.2266 80.9023 40.0859C80.8711 39.9531 80.8555 39.8438 80.8555 39.7578V24.8984ZM84.4531 32.3633C84.4531 32.4258 84.4805 32.5352 84.5352 32.6914C84.5898 32.8477 84.6758 33.0078 84.793 33.1719C84.9102 33.3359 85.0586 33.4844 85.2383 33.6172C85.4258 33.7422 85.6523 33.8047 85.918 33.8047C86.2617 33.8047 86.5547 33.6758 86.7969 33.418C87.0391 33.1523 87.2383 32.7969 87.3945 32.3516C87.5508 31.8984 87.6641 31.375 87.7344 30.7812C87.8047 30.1797 87.8398 29.5391 87.8398 28.8594C87.8398 28.0234 87.793 27.3164 87.6992 26.7383C87.6133 26.1602 87.4844 25.6953 87.3125 25.3438C87.1406 24.9844 86.9336 24.7266 86.6914 24.5703C86.457 24.4062 86.1914 24.3242 85.8945 24.3242C85.7227 24.3242 85.5508 24.375 85.3789 24.4766C85.207 24.5703 85.0508 24.6914 84.9102 24.8398C84.7773 24.9805 84.668 25.1406 84.582 25.3203C84.4961 25.5 84.4531 25.6719 84.4531 25.8359V32.3633ZM93.8867 24.8984C93.8867 24.6719 93.832 24.4766 93.7227 24.3125C93.6211 24.1406 93.4453 24.0547 93.1953 24.0547C93.0625 24.0547 92.9492 24.0781 92.8555 24.125C92.7617 24.1719 92.6602 24.2383 92.5508 24.3242L92.3047 24.0312C92.4844 23.8828 92.6836 23.7383 92.9023 23.5977C93.1289 23.4492 93.3711 23.3203 93.6289 23.2109C93.8867 23.1016 94.1641 23.0117 94.4609 22.9414C94.7578 22.8711 95.0703 22.8359 95.3984 22.8359C95.75 22.8359 96.0508 22.8906 96.3008 23C96.5508 23.1094 96.7578 23.2422 96.9219 23.3984C97.0938 23.5469 97.2227 23.707 97.3086 23.8789C97.3945 24.043 97.4453 24.1836 97.4609 24.3008C97.6172 24.082 97.8008 23.8828 98.0117 23.7031C98.2305 23.5234 98.4648 23.3711 98.7148 23.2461C98.9727 23.1133 99.2422 23.0117 99.5234 22.9414C99.8125 22.8711 100.109 22.8359 100.414 22.8359C101.039 22.8359 101.605 22.9648 102.113 23.2227C102.621 23.4805 103.055 23.8633 103.414 24.3711C103.781 24.8789 104.062 25.5078 104.258 26.2578C104.453 27.0078 104.551 27.875 104.551 28.8594C104.551 30 104.43 30.9727 104.188 31.7773C103.953 32.5742 103.641 33.2266 103.25 33.7344C102.867 34.2422 102.426 34.6133 101.926 34.8477C101.434 35.0742 100.93 35.1875 100.414 35.1875C99.9844 35.1875 99.6055 35.1445 99.2773 35.0586C98.957 34.9727 98.6797 34.8672 98.4453 34.7422C98.2109 34.6172 98.0156 34.4922 97.8594 34.3672C97.7031 34.2344 97.5781 34.125 97.4844 34.0391V39.7578C97.4844 39.8594 97.4688 39.9805 97.4375 40.1211C97.4062 40.2617 97.3281 40.3945 97.2031 40.5195C97.0859 40.6523 96.9062 40.7656 96.6641 40.8594C96.4297 40.9531 96.1055 41 95.6914 41C95.2773 41 94.9492 40.9492 94.707 40.8477C94.4727 40.7539 94.293 40.6367 94.168 40.4961C94.043 40.3633 93.9648 40.2266 93.9336 40.0859C93.9023 39.9531 93.8867 39.8438 93.8867 39.7578V24.8984ZM97.4844 32.3633C97.4844 32.4258 97.5117 32.5352 97.5664 32.6914C97.6211 32.8477 97.707 33.0078 97.8242 33.1719C97.9414 33.3359 98.0898 33.4844 98.2695 33.6172C98.457 33.7422 98.6836 33.8047 98.9492 33.8047C99.293 33.8047 99.5859 33.6758 99.8281 33.418C100.07 33.1523 100.27 32.7969 100.426 32.3516C100.582 31.8984 100.695 31.375 100.766 30.7812C100.836 30.1797 100.871 29.5391 100.871 28.8594C100.871 28.0234 100.824 27.3164 100.73 26.7383C100.645 26.1602 100.516 25.6953 100.344 25.3438C100.172 24.9844 99.9648 24.7266 99.7227 24.5703C99.4883 24.4062 99.2227 24.3242 98.9258 24.3242C98.7539 24.3242 98.582 24.375 98.4102 24.4766C98.2383 24.5703 98.082 24.6914 97.9414 24.8398C97.8086 24.9805 97.6992 25.1406 97.6133 25.3203C97.5273 25.5 97.4844 25.6719 97.4844 25.8359V32.3633ZM110.516 33.9453C110.516 34.0469 110.496 34.1719 110.457 34.3203C110.426 34.4609 110.344 34.5977 110.211 34.7305C110.086 34.8555 109.902 34.9609 109.66 35.0469C109.418 35.1406 109.09 35.1875 108.676 35.1875C108.262 35.1875 107.938 35.1367 107.703 35.0352C107.469 34.9414 107.293 34.8281 107.176 34.6953C107.059 34.5625 106.984 34.4258 106.953 34.2852C106.93 34.1445 106.918 34.0312 106.918 33.9453V24.8984C106.918 24.6719 106.863 24.4766 106.754 24.3125C106.652 24.1406 106.477 24.0547 106.227 24.0547C106.094 24.0547 105.98 24.0781 105.887 24.125C105.793 24.1719 105.691 24.2383 105.582 24.3242L105.336 24.0312C105.516 23.8828 105.715 23.7383 105.934 23.5977C106.16 23.4492 106.402 23.3203 106.66 23.2109C106.918 23.1016 107.195 23.0117 107.492 22.9414C107.789 22.8711 108.102 22.8359 108.43 22.8359C108.938 22.8359 109.332 22.9062 109.613 23.0469C109.895 23.1797 110.102 23.3477 110.234 23.5508C110.367 23.7461 110.445 23.957 110.469 24.1836C110.5 24.4102 110.516 24.6094 110.516 24.7812V33.9453ZM106.555 20.1641C106.555 19.9453 106.602 19.7383 106.695 19.543C106.797 19.3398 106.934 19.1641 107.105 19.0156C107.285 18.8672 107.488 18.75 107.715 18.6641C107.949 18.5781 108.203 18.5352 108.477 18.5352C108.742 18.5352 108.988 18.5781 109.215 18.6641C109.449 18.75 109.652 18.8672 109.824 19.0156C109.996 19.1641 110.129 19.3398 110.223 19.543C110.324 19.7383 110.375 19.9453 110.375 20.1641C110.375 20.3906 110.324 20.6016 110.223 20.7969C110.129 20.9922 109.996 21.1641 109.824 21.3125C109.652 21.4531 109.449 21.5664 109.215 21.6523C108.988 21.7383 108.742 21.7812 108.477 21.7812C108.203 21.7812 107.949 21.7383 107.715 21.6523C107.488 21.5664 107.285 21.4531 107.105 21.3125C106.934 21.1641 106.797 20.9922 106.695 20.7969C106.602 20.6016 106.555 20.3906 106.555 20.1641ZM120.371 29.1641C120.371 28.1797 120.324 27.3945 120.23 26.8086C120.145 26.2148 120.027 25.7656 119.879 25.4609C119.73 25.1484 119.566 24.9453 119.387 24.8516C119.207 24.75 119.023 24.6992 118.836 24.6992C118.609 24.6992 118.406 24.7617 118.227 24.8867C118.055 25.0039 117.902 25.1406 117.77 25.2969C117.645 25.4531 117.535 25.6094 117.441 25.7656C117.355 25.9219 117.281 26.0391 117.219 26.1172V33.9453C117.219 34.0469 117.203 34.1719 117.172 34.3203C117.141 34.4609 117.062 34.5977 116.938 34.7305C116.82 34.8555 116.641 34.9609 116.398 35.0469C116.164 35.1406 115.84 35.1875 115.426 35.1875C115.012 35.1875 114.684 35.1367 114.441 35.0352C114.207 34.9414 114.027 34.8281 113.902 34.6953C113.777 34.5625 113.699 34.4258 113.668 34.2852C113.637 34.1445 113.621 34.0312 113.621 33.9453V24.8984C113.621 24.6719 113.566 24.4766 113.457 24.3125C113.355 24.1406 113.18 24.0547 112.93 24.0547C112.797 24.0547 112.684 24.0781 112.59 24.125C112.496 24.1719 112.395 24.2383 112.285 24.3242L112.039 24.0312C112.219 23.8828 112.418 23.7383 112.637 23.5977C112.863 23.4492 113.105 23.3203 113.363 23.2109C113.621 23.1016 113.898 23.0117 114.195 22.9414C114.492 22.8711 114.805 22.8359 115.133 22.8359C115.641 22.8359 116.035 22.9219 116.316 23.0938C116.598 23.2578 116.805 23.457 116.938 23.6914C117.07 23.9258 117.148 24.1719 117.172 24.4297C117.203 24.6797 117.219 24.8906 117.219 25.0625C117.508 24.6484 117.836 24.2773 118.203 23.9492C118.352 23.8086 118.516 23.6719 118.695 23.5391C118.883 23.4062 119.078 23.2891 119.281 23.1875C119.492 23.0781 119.711 22.9922 119.938 22.9297C120.172 22.8672 120.41 22.8359 120.652 22.8359C121.184 22.8359 121.652 22.9375 122.059 23.1406C122.473 23.3438 122.82 23.6836 123.102 24.1602C123.383 24.6367 123.598 25.2695 123.746 26.0586C123.895 26.8398 123.969 27.8125 123.969 28.9766C123.969 30.1094 123.867 31.0938 123.664 31.9297C123.461 32.7656 123.195 33.4766 122.867 34.0625C122.539 34.6484 122.168 35.125 121.754 35.4922C121.34 35.8672 120.922 36.1602 120.5 36.3711C120.078 36.582 119.672 36.7266 119.281 36.8047C118.898 36.8906 118.566 36.9375 118.285 36.9453L118.156 36.4648C118.391 36.4102 118.605 36.3242 118.801 36.207C119.004 36.0898 119.188 35.918 119.352 35.6914C119.516 35.4648 119.66 35.1797 119.785 34.8359C119.91 34.4844 120.016 34.0469 120.102 33.5234C120.195 33 120.262 32.3828 120.301 31.6719C120.348 30.9531 120.371 30.1172 120.371 29.1641ZM125.891 27.6289C125.891 26.832 126.027 26.1367 126.301 25.543C126.582 24.9414 126.957 24.4414 127.426 24.043C127.895 23.6367 128.438 23.3359 129.055 23.1406C129.672 22.9375 130.32 22.8359 131 22.8359C131.68 22.8359 132.324 22.9258 132.934 23.1055C133.543 23.2852 134.082 23.5625 134.551 23.9375C134.699 23.7109 134.82 23.4727 134.914 23.2227C135.008 22.9727 135.055 22.7227 135.055 22.4727C135.055 22.1445 134.965 21.8828 134.785 21.6875C134.613 21.4922 134.391 21.3945 134.117 21.3945V21.0547C134.289 21 134.441 20.9531 134.574 20.9141C134.707 20.8672 134.828 20.832 134.938 20.8086C135.047 20.7852 135.156 20.7695 135.266 20.7617C135.375 20.7461 135.496 20.7383 135.629 20.7383C135.996 20.7383 136.277 20.8516 136.473 21.0781C136.668 21.3047 136.766 21.6172 136.766 22.0156C136.766 22.25 136.711 22.4844 136.602 22.7188C136.492 22.9453 136.355 23.1641 136.191 23.375C136.027 23.5859 135.844 23.7852 135.641 23.9727C135.445 24.1602 135.258 24.3242 135.078 24.4648C135.406 24.8398 135.66 25.2773 135.84 25.7773C136.02 26.2773 136.109 26.8477 136.109 27.4883C136.109 28.293 135.969 29.0039 135.688 29.6211C135.414 30.2383 135.043 30.7578 134.574 31.1797C134.105 31.6016 133.562 31.9219 132.945 32.1406C132.328 32.3516 131.68 32.457 131 32.457C130.602 32.457 130.211 32.4219 129.828 32.3516C129.445 32.2812 129.086 32.1797 128.75 32.0469C128.625 32.1406 128.516 32.2578 128.422 32.3984C128.336 32.5391 128.293 32.6953 128.293 32.8672C128.293 33.1562 128.418 33.3711 128.668 33.5117C128.918 33.6523 129.25 33.7539 129.664 33.8164C130.078 33.8789 130.547 33.918 131.07 33.9336C131.594 33.9492 132.129 33.9766 132.676 34.0156C133.23 34.0469 133.77 34.1133 134.293 34.2148C134.816 34.3086 135.285 34.4688 135.699 34.6953C136.113 34.9141 136.445 35.2148 136.695 35.5977C136.945 35.9805 137.07 36.4766 137.07 37.0859C137.07 37.5312 136.977 37.9297 136.789 38.2812C136.602 38.6406 136.348 38.9531 136.027 39.2188C135.715 39.4922 135.348 39.7227 134.926 39.9102C134.512 40.1055 134.07 40.2617 133.602 40.3789C133.141 40.5039 132.668 40.5938 132.184 40.6484C131.707 40.7031 131.25 40.7305 130.812 40.7305C130.016 40.7305 129.297 40.6875 128.656 40.6016C128.023 40.5234 127.484 40.3984 127.039 40.2266C126.594 40.0547 126.25 39.832 126.008 39.5586C125.766 39.2852 125.645 38.957 125.645 38.5742C125.645 38.3008 125.707 38.0469 125.832 37.8125C125.957 37.5859 126.121 37.375 126.324 37.1797C126.535 36.9922 126.77 36.8203 127.027 36.6641C127.285 36.5156 127.547 36.375 127.812 36.2422C127.422 36.0781 127.094 35.8281 126.828 35.4922C126.57 35.1641 126.441 34.7266 126.441 34.1797C126.441 33.8906 126.492 33.625 126.594 33.3828C126.695 33.1328 126.824 32.9062 126.98 32.7031C127.145 32.4922 127.32 32.3047 127.508 32.1406C127.703 31.9688 127.891 31.8242 128.07 31.707C127.75 31.5195 127.453 31.293 127.18 31.0273C126.914 30.7539 126.684 30.4492 126.488 30.1133C126.301 29.7695 126.152 29.3906 126.043 28.9766C125.941 28.5625 125.891 28.1133 125.891 27.6289ZM132.582 27.5352C132.582 27.082 132.559 26.6406 132.512 26.2109C132.465 25.7812 132.383 25.3984 132.266 25.0625C132.148 24.7266 131.988 24.457 131.785 24.2539C131.582 24.043 131.32 23.9375 131 23.9375C130.68 23.9375 130.418 24.0469 130.215 24.2656C130.012 24.4766 129.852 24.7578 129.734 25.1094C129.617 25.4531 129.535 25.8477 129.488 26.293C129.441 26.7305 129.418 27.1758 129.418 27.6289C129.418 28.0898 129.441 28.543 129.488 28.9883C129.535 29.4336 129.617 29.832 129.734 30.1836C129.852 30.5352 130.012 30.8203 130.215 31.0391C130.418 31.25 130.68 31.3555 131 31.3555C131.32 31.3555 131.582 31.2422 131.785 31.0156C131.988 30.7891 132.148 30.4961 132.266 30.1367C132.383 29.7695 132.465 29.3594 132.512 28.9062C132.559 28.4531 132.582 27.9961 132.582 27.5352ZM134.363 38.0234C134.363 37.7734 134.266 37.5664 134.07 37.4023C133.875 37.2461 133.617 37.1172 133.297 37.0156C132.984 36.9219 132.625 36.8477 132.219 36.793C131.82 36.7461 131.414 36.707 131 36.6758C130.586 36.6523 130.184 36.6289 129.793 36.6055C129.402 36.582 129.062 36.5508 128.773 36.5117C128.609 36.6289 128.449 36.7539 128.293 36.8867C128.145 37.0273 128.012 37.1719 127.895 37.3203C127.785 37.4766 127.695 37.6367 127.625 37.8008C127.555 37.9727 127.52 38.1445 127.52 38.3164C127.52 38.6133 127.605 38.8594 127.777 39.0547C127.949 39.2578 128.18 39.418 128.469 39.5352C128.766 39.6523 129.105 39.7344 129.488 39.7812C129.879 39.8281 130.289 39.8516 130.719 39.8516C131.289 39.8516 131.801 39.8008 132.254 39.6992C132.707 39.6055 133.09 39.4727 133.402 39.3008C133.715 39.1367 133.953 38.9453 134.117 38.7266C134.281 38.5078 134.363 38.2734 134.363 38.0234ZM142.367 33.9453C142.367 34.0469 142.348 34.1719 142.309 34.3203C142.277 34.4609 142.195 34.5977 142.062 34.7305C141.938 34.8555 141.754 34.9609 141.512 35.0469C141.27 35.1406 140.941 35.1875 140.527 35.1875C140.113 35.1875 139.789 35.1367 139.555 35.0352C139.32 34.9414 139.145 34.8281 139.027 34.6953C138.91 34.5625 138.836 34.4258 138.805 34.2852C138.781 34.1445 138.77 34.0312 138.77 33.9453V24.8984C138.77 24.6719 138.715 24.4766 138.605 24.3125C138.504 24.1406 138.328 24.0547 138.078 24.0547C137.945 24.0547 137.832 24.0781 137.738 24.125C137.645 24.1719 137.543 24.2383 137.434 24.3242L137.188 24.0312C137.367 23.8828 137.566 23.7383 137.785 23.5977C138.012 23.4492 138.254 23.3203 138.512 23.2109C138.77 23.1016 139.047 23.0117 139.344 22.9414C139.641 22.8711 139.953 22.8359 140.281 22.8359C140.789 22.8359 141.184 22.9062 141.465 23.0469C141.746 23.1797 141.953 23.3477 142.086 23.5508C142.219 23.7461 142.297 23.957 142.32 24.1836C142.352 24.4102 142.367 24.6094 142.367 24.7812V33.9453ZM138.406 20.1641C138.406 19.9453 138.453 19.7383 138.547 19.543C138.648 19.3398 138.785 19.1641 138.957 19.0156C139.137 18.8672 139.34 18.75 139.566 18.6641C139.801 18.5781 140.055 18.5352 140.328 18.5352C140.594 18.5352 140.84 18.5781 141.066 18.6641C141.301 18.75 141.504 18.8672 141.676 19.0156C141.848 19.1641 141.98 19.3398 142.074 19.543C142.176 19.7383 142.227 19.9453 142.227 20.1641C142.227 20.3906 142.176 20.6016 142.074 20.7969C141.98 20.9922 141.848 21.1641 141.676 21.3125C141.504 21.4531 141.301 21.5664 141.066 21.6523C140.84 21.7383 140.594 21.7812 140.328 21.7812C140.055 21.7812 139.801 21.7383 139.566 21.6523C139.34 21.5664 139.137 21.4531 138.957 21.3125C138.785 21.1641 138.648 20.9922 138.547 20.7969C138.453 20.6016 138.406 20.3906 138.406 20.1641ZM151.109 17.5742C150.891 17.5742 150.684 17.6211 150.488 17.7148C150.293 17.8086 150.121 17.9609 149.973 18.1719C149.832 18.375 149.719 18.6367 149.633 18.957C149.547 19.2773 149.504 19.6641 149.504 20.1172V23H152.07V23.8438H149.504V33.0781C149.504 34.1406 149.363 35.1211 149.082 36.0195C148.809 36.918 148.391 37.6914 147.828 38.3398C147.266 38.9961 146.562 39.5078 145.719 39.875C144.875 40.2422 143.891 40.4258 142.766 40.4258C142.367 40.4258 141.984 40.3906 141.617 40.3203C141.25 40.2578 140.926 40.168 140.645 40.0508C140.363 39.9336 140.141 39.793 139.977 39.6289C139.805 39.4727 139.719 39.2969 139.719 39.1016C139.719 38.9609 139.738 38.8164 139.777 38.668C139.816 38.5273 139.875 38.3984 139.953 38.2812C140.031 38.1641 140.129 38.0664 140.246 37.9883C140.355 37.918 140.484 37.8828 140.633 37.8828C140.719 37.8828 140.797 37.9258 140.867 38.0117C140.93 38.0977 140.996 38.2031 141.066 38.3281C141.137 38.4531 141.219 38.5898 141.312 38.7383C141.398 38.8945 141.512 39.0352 141.652 39.1602C141.793 39.2852 141.969 39.3906 142.18 39.4766C142.383 39.5625 142.633 39.6055 142.93 39.6055C143.328 39.6055 143.68 39.5234 143.984 39.3594C144.289 39.2031 144.551 38.9844 144.77 38.7031C144.988 38.4219 145.172 38.0898 145.32 37.707C145.469 37.3242 145.586 36.9141 145.672 36.4766C145.758 36.0391 145.816 35.582 145.848 35.1055C145.887 34.6289 145.906 34.1523 145.906 33.6758V23.8438H143.75V23H145.906V21.6289C145.906 20.9414 145.988 20.3438 146.152 19.8359C146.324 19.3203 146.547 18.8828 146.82 18.5234C147.102 18.1641 147.418 17.8711 147.77 17.6445C148.121 17.418 148.477 17.2383 148.836 17.1055C149.203 16.9727 149.559 16.8828 149.902 16.8359C150.246 16.7891 150.547 16.7656 150.805 16.7656C151.359 16.7656 151.852 16.8086 152.281 16.8945C152.711 16.9727 153.07 17.082 153.359 17.2227C153.648 17.3555 153.867 17.5117 154.016 17.6914C154.164 17.8711 154.238 18.0547 154.238 18.2422C154.238 18.3828 154.215 18.5273 154.168 18.6758C154.129 18.8164 154.07 18.9492 153.992 19.0742C153.914 19.1914 153.816 19.2891 153.699 19.3672C153.59 19.4375 153.465 19.4727 153.324 19.4727C153.238 19.4727 153.16 19.4258 153.09 19.332C153.02 19.2383 152.945 19.1211 152.867 18.9805C152.789 18.8398 152.703 18.6875 152.609 18.5234C152.516 18.3594 152.398 18.207 152.258 18.0664C152.125 17.9258 151.965 17.8086 151.777 17.7148C151.59 17.6211 151.367 17.5742 151.109 17.5742ZM162.477 24.6758C162.477 26.1055 162.336 27.4883 162.055 28.8242C161.781 30.1523 161.398 31.4023 160.906 32.5742C160.422 33.7383 159.844 34.8008 159.172 35.7617C158.5 36.7305 157.77 37.5586 156.98 38.2461C156.191 38.9336 155.355 39.4688 154.473 39.8516C153.598 40.2344 152.711 40.4258 151.812 40.4258C151.125 40.4258 150.594 40.3086 150.219 40.0742C149.844 39.8477 149.656 39.5391 149.656 39.1484C149.656 39 149.68 38.8555 149.727 38.7148C149.773 38.5742 149.836 38.4492 149.914 38.3398C149.992 38.2305 150.086 38.1406 150.195 38.0703C150.305 38.0078 150.422 37.9766 150.547 37.9766C150.695 37.9766 150.82 38.0508 150.922 38.1992C151.016 38.3477 151.117 38.5078 151.227 38.6797C151.336 38.8594 151.469 39.0234 151.625 39.1719C151.781 39.3203 151.996 39.3945 152.27 39.3945C152.621 39.3945 152.988 39.332 153.371 39.207C153.754 39.0898 154.137 38.918 154.52 38.6914C154.91 38.4648 155.297 38.1875 155.68 37.8594C156.07 37.5391 156.453 37.1797 156.828 36.7812C156.609 35.9922 156.355 35.1328 156.066 34.2031C155.785 33.2656 155.484 32.3242 155.164 31.3789C154.852 30.4336 154.527 29.5234 154.191 28.6484C153.863 27.7656 153.539 26.9844 153.219 26.3047C152.906 25.625 152.602 25.082 152.305 24.6758C152.016 24.2617 151.758 24.0547 151.531 24.0547C151.383 24.0547 151.27 24.0781 151.191 24.125C151.105 24.1719 151.008 24.2383 150.898 24.3242L150.664 24.0312C150.82 23.8984 150.984 23.7617 151.156 23.6211C151.328 23.4805 151.531 23.3516 151.766 23.2344C152 23.1172 152.273 23.0234 152.586 22.9531C152.898 22.875 153.273 22.8359 153.711 22.8359C154.188 22.8359 154.629 22.9453 155.035 23.1641C155.449 23.375 155.824 23.7695 156.16 24.3477C156.402 24.7773 156.652 25.293 156.91 25.8945C157.176 26.4961 157.441 27.168 157.707 27.9102C157.973 28.6523 158.238 29.457 158.504 30.3242C158.777 31.1836 159.051 32.0859 159.324 33.0312C159.809 32.0156 160.199 30.9414 160.496 29.8086C160.793 28.668 160.941 27.4961 160.941 26.293C160.941 25.8633 160.914 25.4961 160.859 25.1914C160.805 24.8867 160.742 24.6289 160.672 24.418C160.602 24.1992 160.539 24.0156 160.484 23.8672C160.43 23.7109 160.402 23.5742 160.402 23.457C160.402 23.3398 160.449 23.2422 160.543 23.1641C160.637 23.0781 160.75 23.0117 160.883 22.9648C161.016 22.918 161.148 22.8867 161.281 22.8711C161.422 22.8477 161.539 22.8359 161.633 22.8359C161.844 22.8359 162.004 22.8789 162.113 22.9648C162.23 23.0508 162.316 23.1758 162.371 23.3398C162.426 23.4961 162.457 23.6875 162.465 23.9141C162.473 24.1406 162.477 24.3945 162.477 24.6758Z" fill="#F9A109"/>
<g clip-path="url(#clip1_2_221)">
<path d="M23.7149 39.4334C23.7149 39.9446 23.6578 40.4557 23.2006 40.4557H15.6569C15.2569 40.4557 15.1426 40.0176 15.1426 39.4334V29.2101C15.1426 28.6989 15.2569 28.0417 15.6569 28.0417H23.2006C23.6006 28.0417 23.7149 28.6989 23.7149 29.2101V39.4334Z" fill="#193A39"/>
<path d="M30.5728 39.4334C30.5728 39.9446 30.3442 40.4557 29.887 40.4557H22.3433C21.9433 40.4557 21.429 40.0176 21.429 39.4334V9.49363C21.429 8.98247 21.9433 8.25223 22.3433 8.25223H29.887C30.2871 8.25223 30.5728 8.69037 30.5728 9.20154V39.4334V39.4334Z" fill="#193A39"/>
<path d="M18.5715 38.3381C18.5715 39.1413 18.3429 39.7255 17.7143 39.7255H6.45593C5.82729 39.7255 5.42725 39.1413 5.42725 38.3381V23.1491C5.42725 22.3458 5.82729 21.4695 6.45593 21.4695H17.7143C18.3429 21.4695 18.5715 22.3458 18.5715 23.1491V38.3381Z" fill="#245151"/>
<path d="M10.2278 37.7539C10.3992 38.4841 10.0563 39.2874 9.48485 39.5064L8.97051 39.7255C8.39902 39.9446 7.77038 39.5064 7.59893 38.7762L1.14109 10.662C0.969641 9.93179 1.31254 9.12853 1.88403 8.90945L2.34122 8.76341C2.91271 8.54433 3.54135 8.98248 3.7128 9.71272L10.2278 37.7539Z" fill="#245151"/>
<path d="M9.4277 38.7762C9.4277 39.5795 8.97051 40.2367 8.34187 40.3097H7.88468C7.25604 40.3097 6.7417 39.7255 6.68455 38.9223L5.71301 9.71273C5.71301 8.90947 6.17021 8.25225 6.79885 8.17923H7.25604C7.88468 8.17923 8.39902 8.76342 8.45617 9.56668L9.4277 38.7762Z" fill="#193A39"/>
<path d="M7.37031 34.3948C7.42746 35.198 6.97026 35.8552 6.34162 35.9283L5.88443 36.0013C5.25579 36.0743 4.74145 35.4901 4.6843 34.6869L2.51264 5.62337C2.45549 4.82011 2.91268 4.16289 3.54132 4.08987L3.99851 4.01684C4.62715 3.94382 5.14149 4.52801 5.19864 5.33127L7.37031 34.3948Z" fill="#35605F"/>
<path d="M32.5159 32.058L35.9448 18.1105C36.0591 17.5263 36.002 16.8691 35.7162 16.4309C35.4305 15.9928 34.9733 15.6277 34.5161 15.6277H1.48392C1.02673 15.6277 0.569533 15.9198 0.283788 16.4309C-0.00195761 16.9421 -0.0591067 17.5263 0.0551915 18.1105L3.48414 32.058C3.48414 32.3501 3.54128 32.5692 3.65558 32.8613L5.14146 38.9953C5.31291 39.7985 5.8844 40.4558 6.57019 40.4558H29.4298C30.0585 40.4558 30.6299 39.7985 30.8585 38.9953L32.3444 32.8613L32.5159 32.058ZM5.25576 26.5812H30.7442L29.887 30.2324H6.05584L5.25576 26.5812ZM32.5159 19.2788L31.7158 22.93H4.34137L3.54128 19.2788H32.5159ZM7.65602 36.8046L7.02738 33.8836H29.0298L28.4011 36.8046H7.65602Z" fill="#FF0D52"/>
<path d="M35.7162 17.0881C35.4305 16.577 34.9733 16.3579 34.5161 16.3579H1.48392C1.02673 16.3579 0.569533 16.577 0.283788 17.0881C-0.00195761 17.5993 -0.0591067 18.1835 0.0551915 18.7677L5.14146 39.5064C5.19861 39.6525 5.19861 39.7985 5.25576 39.8716C5.08431 40.0906 4.97001 40.3827 4.97001 40.7478C4.97001 41.4051 5.37006 41.9892 5.8844 41.9892H30.0013C30.5156 41.9892 30.9157 41.4051 30.9157 40.7478C30.9157 40.4557 30.8014 40.0906 30.6299 39.8716C30.6871 39.7255 30.7442 39.6525 30.7442 39.5064L32.2301 33.4455L32.4016 32.6422L35.8305 18.6946C36.0591 18.1835 36.002 17.5263 35.7162 17.0881ZM7.02738 34.6138H29.0298L28.4011 37.5348H7.65602L7.02738 34.6138ZM29.9442 30.2324H6.05584L5.19861 27.3115H30.6871L29.9442 30.2324ZM31.6586 23.6603H4.34137L3.54129 20.0091H32.5159L31.6586 23.6603Z" fill="#F9A109"/>
<path d="M10.9707 17.7453C10.4564 18.4026 9.59913 18.4026 9.08479 17.7453L7.88466 16.2118C7.37032 15.5546 7.37032 14.4593 7.88466 13.8021L13.9425 5.84246C14.4568 5.18524 15.314 5.18524 15.8284 5.84246L17.0285 7.37596C17.5429 8.03317 17.5429 9.12853 17.0285 9.78575L10.9707 17.7453Z" fill="#65A5A8"/>
<path d="M9.42767 15.7737L15.5426 7.96016C15.9998 7.37597 16.057 6.42666 15.6569 5.76945C15.1426 5.25828 14.3996 5.3313 13.9424 5.91549L7.8275 13.729C7.37031 14.3132 7.31316 15.2625 7.7132 15.9198C8.22754 16.4309 8.97048 16.3579 9.42767 15.7737Z" fill="#72B1B7"/>
<path d="M11.1993 13.4369C11.8851 14.3132 10.342 17.7453 9.65624 18.6946C8.97045 19.5709 7.82747 19.5709 7.08453 18.6946C6.39874 17.8184 6.39874 16.3579 7.08453 15.4086C7.82747 14.4593 10.5135 12.4876 11.1993 13.4369Z" fill="#579B9B"/>
<path opacity="0.2" d="M11.085 17.0151C10.9707 19.1328 9.37049 20.0091 8.39896 19.717C7.42743 19.4249 6.57019 18.2565 6.57019 17.0151C6.57019 15.7737 7.37028 14.6783 8.39896 14.6783C9.37049 14.6783 11.1421 15.7007 11.085 17.0151Z" fill="#83C9CC"/>
<path d="M8.39896 19.3519C9.40896 19.3519 10.2277 18.3057 10.2277 17.0151C10.2277 15.7245 9.40896 14.6783 8.39896 14.6783C7.38896 14.6783 6.57019 15.7245 6.57019 17.0151C6.57019 18.3057 7.38896 19.3519 8.39896 19.3519Z" fill="#83C9CC"/>
<path d="M9.6563 15.3356C10.3421 16.2119 10.3421 17.6723 9.6563 18.6216C8.97051 19.4979 7.82753 19.4979 7.08459 18.6216" fill="#72B1B7"/>
<path d="M25.0294 17.7453C25.5437 18.4026 26.401 18.4026 26.9153 17.7453L28.1154 16.2118C28.6298 15.5546 28.6298 14.4593 28.1154 13.8021L22.0576 5.84246C21.5433 5.18524 20.686 5.18524 20.1717 5.84246L18.9716 7.37596C18.4572 8.03317 18.4572 9.12853 18.9716 9.78575L25.0294 17.7453Z" fill="#72B1B7"/>
<path d="M26.5725 15.7737L20.4575 7.88713C20.0003 7.30294 19.9432 6.35363 20.3432 5.69642C20.8575 5.18525 21.6005 5.25827 22.0577 5.84247L28.1726 13.656C28.6298 14.2402 28.687 15.1895 28.2869 15.8467C27.7726 16.4309 27.0296 16.3579 26.5725 15.7737Z" fill="#65A5A8"/>
<path d="M24.8008 13.4369C24.115 14.3132 25.6581 17.7453 26.3439 18.6946C27.0296 19.5709 28.1726 19.5709 28.9156 18.6946C29.6014 17.8184 29.6014 16.3579 28.9156 15.4086C28.1726 14.4593 25.4866 12.4876 24.8008 13.4369Z" fill="#579B9B"/>
<path opacity="0.2" d="M24.915 17.0151C25.0293 19.1328 26.6295 20.0091 27.6011 19.717C28.5726 19.4249 29.4298 18.2565 29.4298 17.0151C29.4298 15.7737 28.6297 14.6783 27.6011 14.6783C26.6295 14.6783 24.8579 15.7007 24.915 17.0151Z" fill="#83C9CC"/>
<path d="M27.6011 19.3519C28.6111 19.3519 29.4299 18.3057 29.4299 17.0151C29.4299 15.7245 28.6111 14.6783 27.6011 14.6783C26.5911 14.6783 25.7723 15.7245 25.7723 17.0151C25.7723 18.3057 26.5911 19.3519 27.6011 19.3519Z" fill="#72B1B7"/>
<path d="M26.3438 15.3355C25.658 16.2118 25.658 17.6723 26.3438 18.6216C27.0296 19.4979 28.1726 19.4979 28.9155 18.6216" fill="#83C9CC"/>
</g>
</g>
<defs>
<clipPath id="clip0_2_221">
<rect width="166" height="42" fill="white"/>
</clipPath>
<clipPath id="clip1_2_221">
<rect width="36" height="46" fill="white"/>
</clipPath>
</defs>
</svg>
